<svg xmlns="http://www.w3.org/2000/svg" viewBox="0 0 129.35 88.17"><defs><style>.cls-1{fill:#231f20;}</style></defs><g id="Layer_2" data-name="Layer 2"><g id="Layer_1-2" data-name="Layer 1"><path class="cls-1" d="M0,0H19.91V6.51H0ZM6.56,3.34h6.78V39.76H6.56Z"/><path class="cls-1" d="M23.13,0h6.79V39.76H23.13Zm3.23,17H39.68v6.37H26.36ZM35.28,0h6.78V39.76H35.28Z"/><path class="cls-1" d="M46.93,0h6.78V39.76H46.93Zm3,0H64.59V6.62H49.93Zm0,16.71H63.22V23.3H49.93Zm0,16.43H64.59v6.62H49.93Z"/><path class="cls-1" d="M72,39a7.75,7.75,0,0,1-3.26-3.44,12,12,0,0,1-1.13-5.4V0h6.81V30.33a3.3,3.3,0,0,0,.71,2.25,2.49,2.49,0,0,0,2,.81,2.55,2.55,0,0,0,2-.81,3.21,3.21,0,0,0,.73-2.25V0h6.81V30.14a11.89,11.89,0,0,1-1.14,5.4A7.85,7.85,0,0,1,82.27,39,11.59,11.59,0,0,1,72,39Z"/><path class="cls-1" d="M90.57,0H95.9l9.35,26.53-.73,1.06V0h6.18V39.73h-5.39l-9.24-25,.71-1.09V39.73H90.57Z"/><path class="cls-1" d="M2.73,48H9.52V87.76H2.73ZM8.12,69.38,15.86,48h7.66L8.12,81.44Zm2.49-3.33L15.26,62l9.52,25.79H17.34Z"/><path class="cls-1" d="M27.18,48h5.33l9.36,26.53-.74,1.06V48h6.18V87.73H41.92l-9.24-25,.71-1.09V87.73H27.18Z"/><path class="cls-1" d="M56.87,87.06a7.75,7.75,0,0,1-3.49-3.2,10,10,0,0,1-1.2-5V56.94a10.08,10.08,0,0,1,1.2-5.06,7.75,7.75,0,0,1,3.49-3.2,12.72,12.72,0,0,1,5.48-1.09,12.72,12.72,0,0,1,5.48,1.09,7.81,7.81,0,0,1,3.49,3.2,10.08,10.08,0,0,1,1.2,5.06V78.82a10,10,0,0,1-1.2,5,7.81,7.81,0,0,1-3.49,3.2,12.43,12.43,0,0,1-5.48,1.11A12.43,12.43,0,0,1,56.87,87.06ZM64.14,81a2.63,2.63,0,0,0,1.13-1.18,4.06,4.06,0,0,0,.39-1.86V57.76a4,4,0,0,0-.39-1.83,2.68,2.68,0,0,0-1.13-1.18,3.73,3.73,0,0,0-1.79-.41,3.66,3.66,0,0,0-1.78.41,2.77,2.77,0,0,0-1.12,1.18,4,4,0,0,0-.38,1.83V77.94a4.06,4.06,0,0,0,.38,1.86A2.72,2.72,0,0,0,60.57,81a3.66,3.66,0,0,0,1.78.41A3.73,3.73,0,0,0,64.14,81Z"/><path class="cls-1" d="M88.11,48h5.25l4.29,27.59,2-27.59h6.89l-5.09,39.76H95l-4-25.7-4.35,25.7H80L74.93,48h6.89l2,27.59Z"/><path class="cls-1" d="M109.22,48h5.33l9.35,26.53-.73,1.06V48h6.18V87.73H124l-9.24-25,.71-1.09V87.73h-6.21Z"/></g></g></svg>